<?xml version="1.0" standalone="no"?>
<!DOCTYPE svg PUBLIC "-//W3C//DTD SVG 20010904//EN"
 "http://www.w3.org/TR/2001/REC-SVG-20010904/DTD/svg10.dtd">
<svg version="1.0" xmlns="http://www.w3.org/2000/svg"
 width="300.000000pt" height="324.000000pt" viewBox="0 0 300.000000 324.000000"
 preserveAspectRatio="xMidYMid meet">
<metadata>
Created by potrace 1.10, written by Peter Selinger 2001-2011
</metadata>
<g transform="translate(0.000000,324.000000) scale(0.100000,-0.100000)"
fill="#000000" stroke="none">
<path d="M1445 3022 c-87 -26 -141 -57 -195 -112 -56 -55 -83 -103 -103 -186
-19 -74 -30 -248 -18 -294 l8 -35 7 50 c32 241 69 342 153 415 81 71 257 128
359 115 86 -10 199 -72 297 -164 52 -49 78 -49 31 0 l-29 31 80 -4 c124 -7
203 -59 253 -166 20 -44 24 -65 20 -122 -3 -60 -8 -75 -42 -124 -38 -55 -56
-63 -56 -26 0 10 -4 22 -10 25 -6 4 -10 -13 -10 -44 0 -99 -42 -261 -78 -304
-29 -33 -2 -30 34 4 56 52 84 121 84 204 1 69 1 70 38 96 51 35 99 110 108
168 15 99 -36 221 -116 276 -80 55 -151 67 -252 40 l-57 -14 -63 60 c-35 33
-92 74 -128 92 -57 28 -75 32 -160 34 -68 2 -112 -3 -155 -15z"/>
<path d="M2090 2773 c0 -5 15 -17 34 -26 42 -20 80 -69 97 -125 19 -64 36 -38
20 32 -9 42 -21 62 -47 85 -19 17 -40 31 -47 31 -7 0 -22 3 -34 6 -13 4 -23 2
-23 -3z"/>
<path d="M1372 2717 c-19 -44 -14 -88 14 -145 30 -60 77 -101 188 -163 43 -24
89 -57 103 -73 29 -34 40 -29 20 11 -22 41 -74 91 -136 131 -62 40 -137 106
-154 136 -6 12 -14 46 -17 76 -6 53 -7 54 -18 27z"/>
<path d="M1305 2637 c-11 -41 0 -138 20 -178 52 -101 144 -171 292 -219 118
-39 149 -54 186 -89 43 -39 58 -75 64 -151 7 -88 23 -81 23 11 0 81 -17 130
-63 177 -39 41 -73 59 -202 107 -112 42 -163 71 -218 124 -52 49 -75 97 -85
178 -7 58 -10 64 -17 40z"/>
<path d="M1995 2050 c-69 -111 -252 -320 -280 -320 -6 0 -20 19 -30 42 -27 61
-104 134 -183 171 -62 30 -75 32 -172 32 -95 0 -110 -3 -156 -27 -104 -55
-152 -148 -161 -315 -4 -66 -2 -103 4 -103 6 0 13 39 16 88 14 216 97 312 275
320 142 7 265 -53 339 -163 42 -64 38 -75 -30 -82 -56 -7 -119 20 -181 78 -26
23 -49 39 -52 36 -9 -9 66 -95 108 -122 55 -37 118 -51 162 -38 22 7 38 7 42
2 8 -13 -12 -136 -31 -188 -18 -51 -18 -51 -6 -51 15 0 52 121 58 193 6 63 8
69 39 88 38 23 126 117 159 169 13 20 44 75 70 123 50 92 57 142 10 67z"/>
<path d="M939 1865 c-205 -245 -275 -343 -339 -470 -59 -117 -81 -198 -84
-303 -1 -74 -2 -76 -31 -88 -17 -7 -40 -13 -52 -14 -13 0 -23 -5 -23 -11 0
-11 55 -9 99 2 10 3 17 -9 23 -35 14 -66 80 -178 145 -247 l62 -66 -52 -21
c-29 -12 -75 -42 -103 -67 -57 -49 -149 -176 -142 -196 2 -7 18 6 35 32 48 69
147 156 223 194 l67 34 54 -46 c72 -61 378 -263 398 -262 11 0 9 5 -9 17 -162
112 -249 176 -319 235 -79 68 -82 72 -60 80 55 22 130 61 141 74 19 23 2 25
-34 3 -19 -11 -61 -29 -94 -41 l-59 -20 -53 58 c-64 70 -113 150 -137 224 -10
30 -20 59 -22 65 -7 19 167 114 207 114 11 0 20 5 20 11 0 22 -100 1 -165 -35
-35 -19 -65 -33 -67 -30 -9 8 13 141 34 204 46 144 128 282 307 519 170 224
204 272 198 277 -2 3 -78 -83 -168 -191z"/>
<path d="M1690 2051 c0 -15 -54 -32 -90 -29 -26 2 -35 -1 -35 -12 0 -21 67
-25 104 -5 36 18 60 55 36 55 -8 0 -15 -4 -15 -9z"/>
<path d="M1980 1853 c1 -14 46 -60 92 -95 25 -19 104 -58 176 -87 142 -57 213
-107 238 -168 19 -44 18 -177 -2 -244 -37 -123 -112 -241 -286 -449 -195 -232
-386 -393 -551 -463 -39 -17 -135 -52 -212 -79 -172 -60 -113 -57 80 3 181 57
236 81 349 156 225 150 548 517 639 728 35 82 51 171 45 258 -6 84 -30 139
-83 185 -47 42 -69 53 -207 100 -121 42 -210 91 -245 136 -21 26 -33 33 -33
19z"/>
<path d="M937 1602 c-36 -40 -7 -144 48 -175 10 -5 15 -23 15 -50 0 -60 40
-138 106 -207 l57 -60 -6 -86 -5 -86 75 3 76 4 58 -65 c60 -66 71 -87 43 -76
-9 3 -55 -7 -103 -24 -47 -16 -111 -32 -141 -36 -100 -11 -229 36 -270 98 -10
16 -16 65 -20 170 -7 202 -25 212 -24 14 2 -195 16 -226 129 -278 41 -18 67
-23 145 -22 86 0 103 3 184 36 98 40 113 39 169 -8 74 -62 151 -79 223 -49 60
25 161 133 256 274 50 74 135 195 190 269 54 74 96 137 92 141 -3 3 -15 -6
-27 -20 -12 -14 -67 -79 -123 -145 -55 -65 -139 -172 -187 -236 -158 -211
-244 -273 -330 -240 -16 7 -14 10 13 30 30 23 41 64 20 77 -8 5 -8 11 0 20 8
10 4 19 -17 39 -40 38 -109 57 -195 55 -60 -1 -83 3 -127 24 -30 14 -58 24
-63 21 -4 -3 -8 7 -8 21 0 15 -5 35 -11 47 -15 28 -5 33 27 12 19 -13 46 -18
95 -18 131 2 294 105 324 207 16 56 19 97 7 97 -4 0 -14 -27 -20 -60 -16 -75
-50 -112 -153 -163 -143 -71 -221 -60 -335 46 -80 74 -109 137 -101 220 5 54
-6 69 -15 22 -3 -16 -8 -12 -26 23 -32 60 -32 109 -1 133 l24 19 -26 0 c-14 0
-33 -8 -42 -18z m301 -619 l37 -16 -50 -7 c-27 -4 -52 -6 -53 -4 -7 5 10 44
19 44 5 0 26 -8 47 -17z m256 -47 c69 -21 100 -44 85 -62 -8 -10 -8 -14 0 -14
6 0 11 -12 11 -27 0 -25 -1 -25 -18 -10 -10 10 -27 17 -38 17 -16 -1 -15 -4 9
-21 56 -42 12 -55 -51 -15 -36 24 -142 127 -142 140 0 11 96 6 144 -8z"/>
<path d="M1170 1417 c0 -30 69 -48 114 -31 31 12 15 24 -23 18 -28 -4 -46 -1
-65 11 -23 15 -26 16 -26 2z"/>
<path d="M1412 1349 c7 -22 60 -37 96 -27 47 13 40 29 -12 22 -26 -4 -52 -2
-66 6 -18 10 -21 9 -18 -1z"/>
<path d="M1252 1210 c7 -22 33 -33 61 -26 36 9 34 26 -2 26 -16 0 -37 3 -47 7
-11 4 -15 2 -12 -7z"/>
</g>
</svg>
